<svg width="48" height="48" viewBox="0 0 48 48" fill="none" xmlns="http://www.w3.org/2000/svg">
<path d="M34.5315 31.4673L34.5385 31.4743L35.6355 30.3633L38.7754 27.1835L38.8134 27.145L38.8486 27.104C42.6383 22.6898 42.4429 16.0336 38.2615 11.8522C35.4297 9.02046 31.4624 8.01853 27.8313 8.83996L27.3937 8.93896L27.0764 9.25628L25.1375 11.1957L23.5793 10.233C19.2489 7.55734 13.4957 8.09504 9.73847 11.8522C5.35191 16.2388 5.35191 23.3508 9.73847 27.7373L20.7967 38.7956C22.5658 40.5647 25.4341 40.5646 27.2033 38.7957L27.2034 38.7956L33.5223 32.4766L34.5315 31.4673Z" fill="#8CD08F" stroke="#1A1A1A" stroke-width="3.1029"/>
</svg>
