<svg width="73" height="72" viewBox="0 0 73 72" fill="none" xmlns="http://www.w3.org/2000/svg">
<path d="M43.8608 41.7162C49.5509 38.8971 53.4629 33.0304 53.4629 26.25C53.4629 16.7231 45.7398 9 36.2129 9C26.686 9 18.9629 16.7231 18.9629 26.25C18.9629 33.1473 23.0109 39.0991 28.8608 41.8593V60.6005H43.8608V41.7162Z" fill="#8CD08F" stroke="#1A1A1A" stroke-width="4.8"/>
<path d="M28.8633 47.0999H43.8633V59.9999H28.8633V47.0999Z" fill="white" stroke="#1A1A1A" stroke-width="4.5"/>
<mask id="path-3-inside-1_213_1774" fill="white">
<path d="M44.1621 27.3018C44.1621 29.2909 43.3719 31.1985 41.9654 32.6051C40.5589 34.0116 38.6512 34.8018 36.6621 34.8018C34.673 34.8018 32.7653 34.0116 31.3588 32.6051C29.9523 31.1985 29.1621 29.2909 29.1621 27.3018L32.9023 27.3018C32.9023 28.2989 33.2984 29.2552 34.0035 29.9603C34.7086 30.6654 35.6649 31.0616 36.6621 31.0616C37.6593 31.0616 38.6156 30.6654 39.3207 29.9603C40.0258 29.2552 40.4219 28.2989 40.4219 27.3018H44.1621Z"/>
</mask>
<path d="M44.1621 27.3018C44.1621 29.2909 43.3719 31.1985 41.9654 32.6051C40.5589 34.0116 38.6512 34.8018 36.6621 34.8018C34.673 34.8018 32.7653 34.0116 31.3588 32.6051C29.9523 31.1985 29.1621 29.2909 29.1621 27.3018L32.9023 27.3018C32.9023 28.2989 33.2984 29.2552 34.0035 29.9603C34.7086 30.6654 35.6649 31.0616 36.6621 31.0616C37.6593 31.0616 38.6156 30.6654 39.3207 29.9603C40.0258 29.2552 40.4219 28.2989 40.4219 27.3018H44.1621Z" stroke="#1A1A1A" stroke-width="9" mask="url(#path-3-inside-1_213_1774)"/>
</svg>
