<svg width="72" height="72" viewBox="0 0 72 72" fill="none" xmlns="http://www.w3.org/2000/svg">
<path d="M40.8707 55.1985L36.9023 43.0951M52.7995 55.1985H58.7283L58.9864 54.3599C60.7857 48.5119 56.2087 42.6603 50.0995 42.9982M54.1632 32.3638C54.1632 34.8294 52.1644 36.8282 49.6988 36.8282C47.2332 36.8282 45.2344 34.8294 45.2344 32.3638C45.2344 29.8982 47.2332 27.8994 49.6988 27.8994C52.1644 27.8994 54.1632 29.8982 54.1632 32.3638Z" stroke="#1A1A1A" stroke-width="4.5"/>
<path d="M39.2965 24.1487C39.2965 27.8766 36.2744 30.8987 32.5465 30.8987C28.8185 30.8987 25.7965 27.8766 25.7965 24.1487C25.7965 20.4208 28.8185 17.3987 32.5465 17.3987C36.2744 17.3987 39.2965 20.4208 39.2965 24.1487Z" fill="white"/>
<path d="M19.1988 55.4996C16.2314 46.4491 22.7369 36.9062 32.257 36.6132C42.0352 36.3124 49.2084 45.7184 46.3314 55.0687L46.1988 55.4996H19.1988Z" fill="#8CD08F"/>
<path d="M39.2965 24.1487C39.2965 27.8766 36.2744 30.8987 32.5465 30.8987C28.8185 30.8987 25.7965 27.8766 25.7965 24.1487C25.7965 20.4208 28.8185 17.3987 32.5465 17.3987C36.2744 17.3987 39.2965 20.4208 39.2965 24.1487Z" stroke="#1A1A1A" stroke-width="4.5"/>
<path d="M19.1988 55.4996C16.2314 46.4491 22.7369 36.9062 32.257 36.6132C42.0352 36.3124 49.2084 45.7184 46.3314 55.0687L46.1988 55.4996H19.1988Z" stroke="#1A1A1A" stroke-width="4.5"/>
</svg>
