<svg width="48" height="48" viewBox="0 0 48 48" fill="none" xmlns="http://www.w3.org/2000/svg">
<path fill-rule="evenodd" clip-rule="evenodd" d="M19.5602 34.8262L10.4175 26.4207C6.8071 23.1015 6.66332 17.4519 10.1001 13.9533L11.1738 12.8604C13.9388 10.0457 18.4621 10.0055 21.2768 12.7705L23.8251 15.2738L24.1881 15.6304L24.4469 15.3707L26.9683 12.8403C29.7533 10.0453 34.2768 9.63723 37.0717 12.4222L38.0782 13.8251C41.4954 17.2302 40.1467 15.8959 38.0782 25.0004L30.2375 33.2446L24.1466 39.1842L19.5602 34.8262Z" fill="#8CD08F"/>
<path fill-rule="evenodd" clip-rule="evenodd" d="M20.2509 13.8167C18.0141 11.6194 14.4194 11.6513 12.2221 13.8882L11.1484 14.9811C8.29261 17.8882 8.41209 22.5827 11.4121 25.3408L20.5727 33.7626L24.1492 37.1614L30.535 31.1012L36.9209 25.041C39.8208 22.2889 39.8769 17.6859 37.0449 14.864L36.0385 13.8611C33.8173 11.6479 30.2225 11.6543 28.0093 13.8755L24.2011 17.6972L20.2509 13.8167ZM10.1294 11.8324C13.4621 8.4398 18.9141 8.39127 22.3067 11.724L24.179 13.5633L25.9313 11.8048C29.2881 8.43603 34.7403 8.42629 38.1091 11.7831L39.1155 12.786C43.118 16.7741 43.0387 23.2794 38.9402 27.1689L31.5441 34.1879L24.1479 41.2068L18.5607 35.8977L9.4267 27.5004C5.20597 23.62 5.03787 17.0153 9.05573 12.9253L10.1294 11.8324Z" fill="#1A1A1A"/>
<path d="M23.7002 20V27.8M27.4 23.8999H20" stroke="#1A1A1A" stroke-width="3" stroke-linecap="square"/>
</svg>
