<svg width="48" height="48" viewBox="0 0 48 48" fill="none" xmlns="http://www.w3.org/2000/svg">
<g id="feature-1.svg" clip-path="url(#clip0_74_973)">
<path id="Vector" d="M31.3664 0.0343604C25.8882 0.396643 23.6493 2.24062 18.8843 4.56763L16.4079 6.28318C16.2125 6.65542 15.8223 6.89033 15.6308 7.30067C15.2693 8.07536 15.0709 8.82591 14.8969 9.65425L14.8882 9.69582C14.591 11.1115 14.1714 13.1106 12.6089 13.7653C11.6321 14.1746 10.9238 13.9323 9.95393 13.6831C8.86601 13.4035 7.61398 13.4332 6.5003 13.5392C4.96494 13.6854 3.6199 14.1003 2.32357 14.8959C0.5162 16.005 -0.141133 17.1467 0.0247435 19.2228C0.43152 24.3139 6.56847 24.17 10.2993 26.1191C11.2811 26.632 14.1062 27.9517 14.2386 29.2126C14.3217 30.0043 13.4095 30.7833 12.9003 31.2682C10.7991 33.2691 7.95114 34.9011 10.0295 37.9281C11.2141 39.6534 12.8846 41.2404 14.4221 42.6867C15.5 43.7006 16.4874 44.1932 18.0052 44.2078C19.6315 44.2234 21.306 44.0847 22.9266 44.2283C24.4826 44.3661 25.873 45.4206 27.0555 46.3174L27.0926 46.3455C28.9869 47.782 30.6115 48.5062 33.0069 47.5994C36.2881 46.3573 39.3618 43.8028 41.4251 41.1245C46.0974 35.0593 51.5007 24.6925 44.9975 18.0408C42.4474 15.4325 38.7054 13.6971 36.5469 10.7642C35.8381 9.80121 35.6768 8.54138 35.8777 7.39317C36.1877 5.622 37.7818 4.58994 37.5722 2.5935C37.2995 -0.00337648 33.2597 -0.0908422 31.3664 0.0343604Z" fill="#006ED4"/>
<path id="Vector_2" d="M26.787 34.2309C26.0154 34.1152 25.4068 33.7676 24.9612 33.188C24.5156 32.6084 24.3535 31.9135 24.4749 31.1033L25.8501 21.9314L22.3201 21.4022C21.7029 21.3097 21.1917 21.0358 20.7866 20.5806C20.4037 20.109 20.2556 19.5838 20.3424 19.0051C20.4291 18.4264 20.7025 17.9843 21.1625 17.6786C21.6418 17.3757 22.1959 17.2318 22.8247 17.2472C23.848 17.2626 24.7208 17.0976 25.4432 16.7523C26.1848 16.4098 26.7605 15.9243 27.1704 15.2954C27.5272 14.7573 27.952 14.3575 28.4448 14.0961C28.9569 13.8376 29.512 13.7531 30.1099 13.8428C30.8236 13.9498 31.3772 14.2694 31.7708 14.8018C32.1672 15.3149 32.3119 15.9281 32.2049 16.6418L29.9145 31.919C29.793 32.7291 29.4343 33.3458 28.8383 33.7692C28.2423 34.1927 27.5585 34.3466 26.787 34.2309Z" fill="white"/>
</g>
<defs>
<clipPath id="clip0_74_973">
<rect width="48" height="48" fill="white"/>
</clipPath>
</defs>
</svg>
