<svg width="48" height="48" viewBox="0 0 48 48" fill="none" xmlns="http://www.w3.org/2000/svg">
<g id="feature-2.svg" clip-path="url(#clip0_74_982)">
<path id="Vector" d="M13.8372 1.12941C11.6931 2.64473 11.4634 4.02348 11.4634 4.80982C11.4634 4.80982 11.4386 6.47273 10.9937 7.36543C10.5488 8.25813 10.4099 8.59472 9.3494 8.74153C8.77147 8.63405 8.48224 8.08927 8.17494 7.7586C7.51921 7.05302 7.02628 6.0505 6.00769 5.74605C4.24079 5.21793 -0.250867 4.64601 0.0109794 7.05658C0.373663 10.3955 4.30067 12.6053 6.04328 15.4559C8.15282 18.9066 6.41796 20.6119 3.51648 23.1106C-1.06188 27.0533 -0.12151 32.2347 0.633784 37.2583C1.0819 40.2389 1.78726 43.203 4.85106 45.0768C7.78994 46.8742 11.3365 48.0812 15.0117 47.9957C18.1255 47.9233 20.5241 46.5621 22.7166 44.8237C24.1353 43.6989 25.5061 42.2912 27.5567 42.0388C32.3556 41.4482 35.7787 45.6677 40.2797 45.3002C48.6278 44.6186 49.53 34.7008 46.1875 29.8866C43.7854 26.427 34.7927 24.6472 39.1409 19.8342C41.3264 17.4152 44.1317 15.2007 45.2621 12.2391C46.0793 10.0983 45.695 6.9995 42.8421 6.07368C37.3771 4.3002 31.1667 7.72942 25.4748 6.74384C22.5447 6.23649 22.2678 3.70237 21.2753 1.81446C19.9915 -0.627342 15.9215 -0.343595 13.8372 1.12941Z" fill="#04990B"/>
<path id="Vector_2" d="M18.5219 35.1865C17.6295 35.2793 16.862 35.065 16.2195 34.5436C15.5769 34.0221 15.2102 33.3249 15.1194 32.4519C15.0427 31.7147 15.1691 31.0446 15.4986 30.4416C15.8261 29.8193 16.4041 29.2493 17.2327 28.7317C19.0524 27.5619 20.5904 26.3233 21.8467 25.016C23.1204 23.6873 23.6897 22.3731 23.5545 21.0733C23.4838 20.3942 23.2256 19.8916 22.7799 19.5654C22.3535 19.2372 21.7815 19.1104 21.0637 19.1851C20.4817 19.2456 20.0051 19.4717 19.634 19.8632C19.2824 20.2528 19.0853 20.7145 19.0428 21.2484C19.0282 21.4853 19.0269 21.6619 19.0391 21.7783L19.0451 21.8365C19.1178 22.5349 18.9338 23.1227 18.4932 23.6C18.0526 24.0772 17.4734 24.3532 16.7556 24.4279C15.9796 24.5086 15.3014 24.3046 14.7211 23.8159C14.1388 23.3078 13.8042 22.6366 13.7174 21.8024C13.5842 20.522 13.8037 19.3324 14.3757 18.2335C14.9651 17.1133 15.8213 16.2006 16.9441 15.4955C18.065 14.771 19.3432 14.3341 20.7788 14.1847C23.0292 13.9506 24.9037 14.3439 26.4022 15.3647C27.9201 16.3834 28.79 17.9597 29.012 20.0937C29.3652 23.4887 27.4395 26.5619 23.235 29.3133L27.9492 28.8229C28.7447 28.7401 29.4218 28.9344 29.9807 29.4058C30.5376 29.8577 30.8564 30.4717 30.9371 31.2477C31.0158 32.0043 30.8292 32.661 30.3772 33.2179C29.9427 33.7533 29.318 34.0634 28.5032 34.1482L18.5219 35.1865Z" fill="white"/>
</g>
<defs>
<clipPath id="clip0_74_982">
<rect width="48" height="48" fill="white"/>
</clipPath>
</defs>
</svg>
