<svg width="73" height="72" viewBox="0 0 73 72" fill="none" xmlns="http://www.w3.org/2000/svg">
<path d="M36.3767 64.65C41.1557 64.65 43.8857 62.406 44.5327 59.499H28.2227C28.8697 62.406 31.5977 64.65 36.3767 64.65Z" fill="white"/>
<path d="M46.4464 9.26914C46.4464 9.26914 33.9347 5.672 27.8272 10.5896C21.7207 15.5072 20 26.822 20 26.822C20.5983 29.1247 24.3233 35.6592 24.3233 35.6592C24.8758 36.6073 26.6282 43.9638 27.6472 48H45.2127C46.0988 45.0397 49.6629 33.7967 50.1283 32.6937C50.7258 31.2755 51.7447 28.5149 52.2593 27.4733C53.4972 24.9667 52.8095 22.8377 52.8095 20.1615C52.8095 14.4521 50.8637 12.1223 46.4452 9.26706L46.4464 9.26914Z" fill="#8CD08F"/>
<path d="M53.2172 23.75C53.2172 27.735 51.4322 29.658 49.4632 34.25C48.9604 35.422 45.2522 47.63 45.2522 47.63H28.0822C28.0822 47.63 25.1012 35.9599 24.5362 35.0099C22.1662 31.0119 20.1172 28.1 20.1172 23.75C20.1172 14.609 27.5272 7.19995 36.6672 7.19995C45.8082 7.19995 53.2172 14.61 53.2172 23.75Z" stroke="#1A1A1A" stroke-width="4.8" stroke-miterlimit="10" stroke-linecap="round" stroke-linejoin="round"/>
<path d="M36.667 47.22V35.28Z" fill="#1A1A1A"/>
<path d="M36.667 47.22V35.28" stroke="#1A1A1A" stroke-width="4.8" stroke-miterlimit="10" stroke-linecap="round" stroke-linejoin="round"/>
<path d="M36.667 47.22V35.28" stroke="black" stroke-opacity="0.2" stroke-width="4.8" stroke-miterlimit="10" stroke-linecap="round" stroke-linejoin="round"/>
<path d="M42.6373 35.28H30.6973Z" fill="#1A1A1A"/>
<path d="M42.6373 35.28H30.6973" stroke="#1A1A1A" stroke-width="4.8" stroke-miterlimit="10" stroke-linecap="round" stroke-linejoin="round"/>
<path d="M42.6373 35.28H30.6973" stroke="black" stroke-opacity="0.2" stroke-width="4.8" stroke-miterlimit="10" stroke-linecap="round" stroke-linejoin="round"/>
<path d="M44.8276 58.79C44.8276 62.03 41.1766 64.657 36.6726 64.657C32.1686 64.657 28.5176 62.03 28.5176 58.79H44.8276Z" stroke="#1A1A1A" stroke-width="4" stroke-miterlimit="10" stroke-linecap="round" stroke-linejoin="round"/>
<path d="M44.8276 58.79C44.8276 62.03 41.1766 64.657 36.6726 64.657C32.1686 64.657 28.5176 62.03 28.5176 58.79H44.8276Z" stroke="black" stroke-opacity="0.2" stroke-width="4" stroke-miterlimit="10" stroke-linecap="round" stroke-linejoin="round"/>
<path d="M28.6572 54.98L44.6772 51.51Z" fill="#1A1A1A"/>
<path d="M28.6572 54.98L44.6772 51.51" stroke="#1A1A1A" stroke-width="3" stroke-miterlimit="10" stroke-linecap="round" stroke-linejoin="round"/>
<path d="M28.6572 54.98L44.6772 51.51" stroke="black" stroke-opacity="0.2" stroke-width="3" stroke-miterlimit="10" stroke-linecap="round" stroke-linejoin="round"/>
</svg>
