<svg width="73" height="72" viewBox="0 0 73 72" fill="none" xmlns="http://www.w3.org/2000/svg">
<path d="M36.1392 61C35.9566 61.0659 35.9001 61.0157 35.7175 60.9498C33.2925 60.0998 16 53.3498 16 34.1298V16.7598C15.9995 16.5364 16.0738 16.3193 16.2111 16.143C16.3484 15.9667 16.5407 15.8415 16.7575 15.7873L35.7575 11.0298C35.9167 10.9901 36.0833 10.9901 36.2425 11.0298L55.2425 15.7873C55.4592 15.8415 55.6516 15.9667 55.7889 16.143C55.9262 16.3193 56.0005 16.5364 56 16.7598V34.1298C56 53.5423 38.71 60.1223 36.2825 60.9523L36.1392 61Z" fill="#8CD08F" stroke="#1A1A1A" stroke-width="4.5" stroke-miterlimit="10"/>
<path d="M28.5 33.5H43.5M36 41V26" stroke="#1A1A1A" stroke-width="4.5" stroke-miterlimit="10" stroke-linecap="round"/>
</svg>
