<svg width="72" height="72" viewBox="0 0 72 72" fill="none" xmlns="http://www.w3.org/2000/svg">
<path d="M21 20C22.6569 20 24 18.6569 24 17C24 15.3431 22.6569 14 21 14C19.3431 14 18 15.3431 18 17C18 18.6569 19.3431 20 21 20Z" fill="#8CD08F"/>
<path d="M55.9922 29.3237C57.649 29.3237 58.9922 27.9806 58.9922 26.3237C58.9922 24.6669 57.649 23.3237 55.9922 23.3237C54.3353 23.3237 52.9922 24.6669 52.9922 26.3237C52.9922 27.9806 54.3353 29.3237 55.9922 29.3237Z" fill="#8CD08F"/>
<path d="M29.9932 50.0078C31.65 50.0078 32.9932 48.6647 32.9932 47.0078C32.9932 45.351 31.65 44.0078 29.9932 44.0078C28.3363 44.0078 26.9932 45.351 26.9932 47.0078C26.9932 48.6647 28.3363 50.0078 29.9932 50.0078Z" fill="#8CD08F"/>
<path d="M15.4364 27.104L18.5179 24.39L23.3521 24.1921L26.3206 27.0192L27.0049 30.9991L14.9238 30.9913L15.4364 27.104Z" fill="#8CD08F"/>
<path d="M50.4911 36.4302L53.5726 33.7162L58.4069 33.5183L61.3753 36.3453L62.0596 40.3253L49.9785 40.3175L50.4911 36.4302Z" fill="#8CD08F"/>
<path d="M24.4843 57.1118L27.5658 54.3979L32.4001 54.2L35.3685 57.027L36.0528 61.007L23.9717 60.9991L24.4843 57.1118Z" fill="#8CD08F"/>
<path d="M21 20C22.6569 20 24 18.6569 24 17C24 15.3431 22.6569 14 21 14C19.3431 14 18 15.3431 18 17C18 18.6569 19.3431 20 21 20Z" stroke="#1A1A1A" stroke-width="2" stroke-miterlimit="10"/>
<path d="M15 29.9999C15 29.9999 16 25.6887 18 24.6887C20 23.6887 22 23.6887 24 24.6887C26 25.6887 27 29.9999 27 29.9999" stroke="#1A1A1A" stroke-width="2" stroke-miterlimit="10" stroke-linecap="round" stroke-linejoin="round"/>
<path d="M55.9922 29.3237C57.649 29.3237 58.9922 27.9806 58.9922 26.3237C58.9922 24.6669 57.649 23.3237 55.9922 23.3237C54.3353 23.3237 52.9922 24.6669 52.9922 26.3237C52.9922 27.9806 54.3353 29.3237 55.9922 29.3237Z" stroke="#1A1A1A" stroke-width="2" stroke-miterlimit="10"/>
<path d="M49.9922 39.3237C49.9922 39.3237 50.9922 35.0125 52.9922 34.0125C54.9922 33.0125 56.9922 33.0125 58.9922 34.0125C60.9922 35.0125 61.9922 39.3237 61.9922 39.3237" stroke="#1A1A1A" stroke-width="2" stroke-miterlimit="10" stroke-linecap="round" stroke-linejoin="round"/>
<path d="M29.9932 50.0078C31.65 50.0078 32.9932 48.6647 32.9932 47.0078C32.9932 45.351 31.65 44.0078 29.9932 44.0078C28.3363 44.0078 26.9932 45.351 26.9932 47.0078C26.9932 48.6647 28.3363 50.0078 29.9932 50.0078Z" stroke="#1A1A1A" stroke-width="2" stroke-miterlimit="10"/>
<path d="M23.9932 60.0077C23.9932 60.0077 24.9932 55.6965 26.9932 54.6965C28.9932 53.6965 30.9932 53.6965 32.9932 54.6965C34.9932 55.6965 35.9932 60.0077 35.9932 60.0077" stroke="#1A1A1A" stroke-width="2" stroke-miterlimit="10" stroke-linecap="round" stroke-linejoin="round"/>
<path d="M52.5524 20.1356C48.3334 15.1588 42.0358 12 35.0004 12C32.2311 12 29.5761 12.4894 27.1172 13.3865" stroke="#1A1A1A" stroke-width="4" stroke-miterlimit="10" stroke-linecap="round" stroke-linejoin="round"/>
<path d="M39.4336 57.573C47.6462 55.9694 54.295 49.9956 56.8603 42.1714" stroke="#1A1A1A" stroke-width="4" stroke-miterlimit="10" stroke-linecap="round" stroke-linejoin="round"/>
<path d="M12.0868 32.9883C12.0293 33.6512 12 34.3221 12 34.9999C12 42.9742 16.0582 50.0007 22.2221 54.1267" stroke="#1A1A1A" stroke-width="4" stroke-miterlimit="10" stroke-linecap="round" stroke-linejoin="round"/>
</svg>
