<svg width="48" height="48" viewBox="0 0 48 48" fill="none" xmlns="http://www.w3.org/2000/svg">
<path d="M40.002 9.39941H8.00195V17.3994L12.002 19.5994L16.002 17.3994H24.002H32.002L36.002 19.5994L40.002 17.3994V9.39941Z" fill="#8CD08F"/>
<path d="M8.00195 17.3994V40.3994H40.002V17.3994M8.00195 17.3994V9.39941H40.002V17.3994M8.00195 17.3994L12.002 19.5994L16.002 17.3994H24.002H32.002L36.002 19.5994L40.002 17.3994" stroke="#1A1A1A" stroke-width="3"/>
<path d="M21.3212 32.4672L21.8952 31.0813L21.8952 31.0813L21.3212 32.4672ZM17.5328 28.6788L18.9187 28.1048L18.9187 28.1048L17.5328 28.6788ZM15.1992 23.8994H13.6992V26.8994H15.1992V23.8994ZM19.1992 26.8994H20.6992V23.8994H19.1992V26.8994ZM28.7998 23.8994H27.2998V26.8994H28.7998V23.8994ZM32.7998 26.8994H34.2998V23.8994H32.7998V26.8994ZM29.5 26C29.5 26.7223 29.3577 27.4375 29.0813 28.1048L31.853 29.2528C32.2801 28.2215 32.5 27.1162 32.5 26H29.5ZM29.0813 28.1048C28.8049 28.7721 28.3998 29.3784 27.8891 29.8891L30.0104 32.0104C30.7997 31.2211 31.4258 30.2841 31.853 29.2528L29.0813 28.1048ZM27.8891 29.8891C27.3784 30.3998 26.7721 30.8049 26.1048 31.0813L27.2528 33.853C28.2841 33.4258 29.2211 32.7997 30.0104 32.0104L27.8891 29.8891ZM26.1048 31.0813C25.4375 31.3577 24.7223 31.5 24 31.5V34.5C25.1162 34.5 26.2215 34.2801 27.2528 33.853L26.1048 31.0813ZM24 31.5C23.2777 31.5 22.5625 31.3577 21.8952 31.0813L20.7472 33.853C21.7785 34.2801 22.8838 34.5 24 34.5V31.5ZM21.8952 31.0813C21.228 30.8049 20.6216 30.3998 20.1109 29.8891L17.9896 32.0104C18.7789 32.7997 19.7159 33.4258 20.7472 33.853L21.8952 31.0813ZM20.1109 29.8891C19.6002 29.3784 19.1951 28.772 18.9187 28.1048L16.147 29.2528C16.5742 30.2841 17.2003 31.2211 17.9896 32.0104L20.1109 29.8891ZM18.9187 28.1048C18.6423 27.4375 18.5 26.7223 18.5 26H15.5C15.5 27.1162 15.7199 28.2215 16.147 29.2528L18.9187 28.1048ZM15.1992 26.8994H19.1992V23.8994H15.1992V26.8994ZM28.7998 26.8994H32.7998V23.8994H28.7998V26.8994Z" fill="#1A1A1A"/>
</svg>
