<svg width="48" height="48" viewBox="0 0 48 48" fill="none" xmlns="http://www.w3.org/2000/svg">
<path d="M28.7959 27.8108C32.5893 25.9314 35.1973 22.0203 35.1973 17.5C35.1973 11.1487 30.0485 6 23.6973 6C17.346 6 12.1973 11.1487 12.1973 17.5C12.1973 22.0982 14.896 26.0661 18.7959 27.9062V40.4003H28.7959V27.8108Z" fill="#8CD08F" stroke="#1A1A1A" stroke-width="3.2"/>
<path d="M18.7969 31.3999H28.7969V39.9999H18.7969V31.3999Z" fill="white" stroke="#1A1A1A" stroke-width="3"/>
<mask id="path-3-inside-1_213_1770" fill="white">
<path d="M28.9961 18.2012C28.9961 19.5273 28.4693 20.799 27.5316 21.7367C26.5939 22.6744 25.3222 23.2012 23.9961 23.2012C22.67 23.2012 21.3982 22.6744 20.4606 21.7367C19.5229 20.799 18.9961 19.5273 18.9961 18.2012L21.4896 18.2012C21.4896 18.8659 21.7536 19.5035 22.2237 19.9736C22.6938 20.4436 23.3313 20.7077 23.9961 20.7077C24.6609 20.7077 25.2984 20.4436 25.7685 19.9736C26.2385 19.5035 26.5026 18.8659 26.5026 18.2012H28.9961Z"/>
</mask>
<path d="M28.9961 18.2012C28.9961 19.5273 28.4693 20.799 27.5316 21.7367C26.5939 22.6744 25.3222 23.2012 23.9961 23.2012C22.67 23.2012 21.3982 22.6744 20.4606 21.7367C19.5229 20.799 18.9961 19.5273 18.9961 18.2012L21.4896 18.2012C21.4896 18.8659 21.7536 19.5035 22.2237 19.9736C22.6938 20.4436 23.3313 20.7077 23.9961 20.7077C24.6609 20.7077 25.2984 20.4436 25.7685 19.9736C26.2385 19.5035 26.5026 18.8659 26.5026 18.2012H28.9961Z" stroke="#1A1A1A" stroke-width="6" mask="url(#path-3-inside-1_213_1770)"/>
</svg>
